<svg width="79" height="76" viewBox="0 0 79 76" fill="none" xmlns="http://www.w3.org/2000/svg">
<path d="M39.2331 10.8667C41.9577 10.8667 44.1665 8.65794 44.1665 5.93333C44.1665 3.20873 41.9577 1 39.2331 1C36.5085 1 34.2998 3.20873 34.2998 5.93333C34.2998 8.65794 36.5085 10.8667 39.2331 10.8667Z" stroke="#1e7552" stroke-width="1.5" stroke-miterlimit="10" stroke-linecap="round" stroke-linejoin="round"/>
<path d="M19.5002 75.0002C22.2248 75.0002 24.4336 72.7915 24.4336 70.0669C24.4336 67.3423 22.2248 65.1335 19.5002 65.1335C16.7756 65.1335 14.5669 67.3423 14.5669 70.0669C14.5669 72.7915 16.7756 75.0002 19.5002 75.0002Z" stroke="#1e7552" stroke-width="1.5" stroke-miterlimit="10" stroke-linecap="round" stroke-linejoin="round"/>
<path d="M58.9665 75.0002C61.6911 75.0002 63.8999 72.7915 63.8999 70.0669C63.8999 67.3423 61.6911 65.1335 58.9665 65.1335C56.2419 65.1335 54.0332 67.3423 54.0332 70.0669C54.0332 72.7915 56.2419 75.0002 58.9665 75.0002Z" stroke="#1e7552" stroke-width="1.5" stroke-miterlimit="10" stroke-linecap="round" stroke-linejoin="round"/>
<path d="M5.93333 34.3003C8.65794 34.3003 10.8667 32.0915 10.8667 29.3669C10.8667 26.6423 8.65794 24.4336 5.93333 24.4336C3.20873 24.4336 1 26.6423 1 29.3669C1 32.0915 3.20873 34.3003 5.93333 34.3003Z" stroke="#1e7552" stroke-width="1.5" stroke-miterlimit="10" stroke-linecap="round" stroke-linejoin="round"/>
<path d="M72.5334 34.3003C75.258 34.3003 77.4668 32.0915 77.4668 29.3669C77.4668 26.6423 75.258 24.4336 72.5334 24.4336C69.8088 24.4336 67.6001 26.6423 67.6001 29.3669C67.6001 32.0915 69.8088 34.3003 72.5334 34.3003Z" stroke="#1e7552" stroke-width="1.5" stroke-miterlimit="10" stroke-linecap="round" stroke-linejoin="round"/>
<path d="M45.4002 33.6832C45.4002 37.9999 42.9336 41.6999 39.2336 41.6999C35.5336 41.6999 33.0669 37.9999 33.0669 33.6832C33.0669 29.3666 34.3002 26.8999 39.2336 26.8999C44.1669 26.8999 45.4002 29.3666 45.4002 33.6832Z" stroke="#1e7552" stroke-width="1.5" stroke-miterlimit="10" stroke-linecap="round" stroke-linejoin="round"/>
<path d="M42.9332 40.4666L49.4699 44.1666C50.8266 44.9066 51.5666 46.3866 51.5666 47.8666C51.5666 49.9632 50.3332 51.5666 49.0999 51.5666H29.3666C28.1332 51.5666 26.8999 49.9632 26.8999 47.8666C26.8999 46.3866 27.7632 44.9066 28.9966 44.1666L35.5332 40.4666" stroke="#1e7552" stroke-width="1.5" stroke-miterlimit="10" stroke-linecap="round" stroke-linejoin="round"/>
<path d="M39.2329 10.8665V19.4998" stroke="#f7bf20" stroke-width="1.5" stroke-miterlimit="10" stroke-linecap="round" stroke-linejoin="round"/>
<path d="M10.8672 31.8335L19.5005 35.5335" stroke="#f7bf20" stroke-width="1.5" stroke-miterlimit="10" stroke-linecap="round" stroke-linejoin="round"/>
<path d="M22.8301 65.1332L26.9001 58.9666" stroke="#f7bf20" stroke-width="1.5" stroke-miterlimit="10" stroke-linecap="round" stroke-linejoin="round"/>
<path d="M55.6369 65.1332L51.5669 58.9666" stroke="#f7bf20" stroke-width="1.5" stroke-miterlimit="10" stroke-linecap="round" stroke-linejoin="round"/>
<path d="M67.6001 31.8335L58.9668 35.5335" stroke="#f7bf20" stroke-width="1.5" stroke-miterlimit="10" stroke-linecap="round" stroke-linejoin="round"/>
<path d="M6.95459 34.5312L16.2046 65.75" stroke="#f7bf20" stroke-width="1.5" stroke-miterlimit="10" stroke-linecap="round" stroke-linejoin="round"/>
<path d="M34.2995 8.3999L9.63281 25.6666" stroke="#f7bf20" stroke-width="1.5" stroke-miterlimit="10" stroke-linecap="round" stroke-linejoin="round"/>
<path d="M68.8332 25.6666L44.1665 8.3999" stroke="#f7bf20" stroke-width="1.5" stroke-miterlimit="10" stroke-linecap="round" stroke-linejoin="round"/>
<path d="M61.2983 65.75L71.7046 34.5312" stroke="#f7bf20" stroke-width="1.5" stroke-miterlimit="10" stroke-linecap="round" stroke-linejoin="round"/>
<path d="M24.4331 70.0664H54.0331" stroke="#f7bf20" stroke-width="1.5" stroke-miterlimit="10" stroke-linecap="round" stroke-linejoin="round"/>
</svg>
