<?xml version="1.0" encoding="UTF-8" standalone="no"?>
<svg
   xmlns:dc="http://purl.org/dc/elements/1.1/"
   xmlns:cc="http://creativecommons.org/ns#"
   xmlns:rdf="http://www.w3.org/1999/02/22-rdf-syntax-ns#"
   xmlns:svg="http://www.w3.org/2000/svg"
   xmlns="http://www.w3.org/2000/svg"
   height="91.8"
   width="67.68"
   id="svg590"
   version="1.1"
   viewBox="0 0 376.50556 509.1797">
  <metadata
     id="metadata596">
    <rdf:RDF>
      <cc:Work
         rdf:about="">
        <dc:format>image/svg+xml</dc:format>
        <dc:type
           rdf:resource="http://purl.org/dc/dcmitype/StillImage" />
        <dc:title>illustration-our technology</dc:title>
      </cc:Work>
    </rdf:RDF>
  </metadata>
  <defs
     id="defs594" />
  <title
     id="title2">illustration-our technology</title>
  <g
     transform="matrix(0.32346313,0,0,0.32346313,74.101407,126.95976)"
     id="g1536">
    <line
       x1="512.21948"
       y1="363.99487"
       x2="805.47607"
       y2="529.32532"
       style="fill:none;stroke:#1e7552;stroke-width:4.39006901px;stroke-linecap:round;stroke-linejoin:round"
       id="line138-5" />
    <line
       x1="352.8598"
       y1="278.12543"
       x2="352.8598"
       y2="940.05981"
       style="fill:none;stroke:#1e7552;stroke-width:8.78013802;stroke-linecap:round;stroke-linejoin:round"
       id="line142-3" />
    <line
       x1="926.11511"
       y1="-52.797974"
       x2="352.8598"
       y2="278.12543"
       style="fill:none;stroke:#1e7552;stroke-width:8.78013802;stroke-linecap:round;stroke-linejoin:round"
       id="line144-5" />
    <polygon
       transform="matrix(8.7801381,0,0,8.7801381,-1141.783,-1388.7839)"
       points="235.52,152.16 235.52,161.34 235.52,227.54 170.24,265.24 104.95,227.54 104.95,161.34 104.95,152.16 170.24,114.47 "
       style="fill:none;stroke:#1e7552;stroke-width:2px;stroke-linecap:round;stroke-linejoin:round"
       id="polygon146" />
    <polyline
       transform="matrix(8.7801381,0,0,8.7801381,-1141.783,-1388.7839)"
       points="235.52 210.53 170.24 248.22 104.95 210.53"
       style="fill:none;stroke:#1e7552;stroke-linecap:round;stroke-linejoin:round"
       id="polyline148" />
    <line
       x1="682.72968"
       y1="320.35809"
       x2="926.11511"
       y2="452.8501"
       style="fill:none;stroke:#1e7552;stroke-width:8.78013802;stroke-linecap:round;stroke-linejoin:round"
       id="line150-6" />
    <line
       x1="352.8598"
       y1="-27.950134"
       x2="352.8598"
       y2="-383.72134"
       style="fill:none;stroke:#1e7552;stroke-width:8.78013802;stroke-linecap:round;stroke-linejoin:round"
       id="line154-2" />
    <line
       x1="-215.82973"
       y1="469.18124"
       x2="275.68225"
       y2="185.40723"
       style="fill:none;stroke:#1e7552;stroke-width:8.78013802;stroke-linecap:round;stroke-linejoin:round"
       id="line134-9" />
    <line
       x1="-92.293213"
       y1="533.53973"
       x2="-48.480206"
       y2="510.71127"
       style="fill:none;stroke:#1e7552;stroke-width:4.39006901px;stroke-linecap:round;stroke-linejoin:round"
       id="line136-1" />
    <line
       x1="-220.30771"
       y1="-52.797974"
       x2="352.8598"
       y2="278.12543"
       style="fill:none;stroke:#1e7552;stroke-width:8.78013802;stroke-linecap:round;stroke-linejoin:round"
       id="line140-2" />
    <line
       x1="352.8598"
       y1="-27.950134"
       x2="352.8598"
       y2="32.808437"
       style="fill:none;stroke:#1e7552;stroke-width:8.78013802;stroke-linecap:round;stroke-linejoin:round"
       id="line152-7" />
    <line
       id="line1838"
       style="fill:none;stroke:#1e7552;stroke-width:8.78013802;stroke-linecap:round;stroke-linejoin:round"
       y2="185.40723"
       x2="275.68225"
       y1="469.18124"
       x1="-215.82973" />
    <line
       id="line1840"
       style="fill:none;stroke:#1e7552;stroke-width:4.39006901px;stroke-linecap:round;stroke-linejoin:round"
       y2="510.71127"
       x2="-48.480206"
       y1="533.53973"
       x1="-92.293213" />
    <line
       id="line1842"
       style="fill:none;stroke:#1e7552;stroke-width:8.78013802;stroke-linecap:round;stroke-linejoin:round"
       y2="278.12543"
       x2="352.8598"
       y1="-52.797974"
       x1="-220.30771" />
    <line
       id="line1844"
       style="fill:none;stroke:#1e7552;stroke-width:8.78013802;stroke-linecap:round;stroke-linejoin:round"
       y2="32.808437"
       x2="352.8598"
       y1="-27.950134"
       x1="352.8598" />
    <path
       id="path14"
       style="fill:#1e7552;stroke-width:15.3195858"
       d="m 349.02993,321.79598 a 11.183297,11.183297 0 0 0 0,-8.88534 11.949276,11.949276 0 0 0 -6.43423,-6.43423 9.4981427,9.4981427 0 0 0 -4.4427,0 12.715256,12.715256 0 0 0 -11.4897,7.65978 c -17.77072,45.19278 -80.1214,131.90163 -137.87626,163.61316 a 11.336493,11.336493 0 0 0 -4.44264,15.31957 11.796081,11.796081 0 0 0 15.31957,4.59591 C 266.15095,462.27655 329.88044,370.35907 349.02993,321.79598 Z" />
    <path
       id="path16"
       style="fill:#1e7552;stroke-width:15.3195858"
       d="m 400.6569,349.83081 c 18.38349,-52.85257 -4.44265,-89.15995 -35.08184,-101.26243 a 66.333805,66.333805 0 0 0 -24.66452,-4.4427 72.30844,72.30844 0 0 0 -67.55936,45.95877 c -16.54517,38.29893 -59.2868,105.09235 -109.53504,133.12718 a 11.695679,11.695679 0 1 0 11.4897,20.37504 C 234.43942,411.56875 279.6322,335.12401 294.95177,299.42939 a 47.797106,47.797106 0 0 1 62.35072,-28.64765 c 19.76227,7.65979 35.08184,30.6392 20.98782,70.7765 -20.98782,61.27835 -100.03688,144.61689 -151.51067,172.65171 a 10.570514,10.570514 0 0 0 -5.82146,6.89385 10.876905,10.876905 0 0 0 1.37876,9.03855 12.408864,12.408864 0 0 0 15.31958,5.05547 C 294.95177,504.55862 377.67754,416.31783 400.6569,349.83081 Z" />
    <path
       id="path18"
       style="fill:#1e7552;stroke-width:15.3195858"
       d="m 405.09959,147.91867 a 180.00513,180.00513 0 0 0 -96.81979,-9.65133 175.71564,175.71564 0 0 0 -129.91008,94.21547 l -1.37872,1.83832 c -8.88539,17.77073 -17.77072,36.30744 -33.70312,40.75014 a 11.796081,11.796081 0 1 0 7.04701,22.36658 c 25.43051,-7.65979 38.14577,-33.24351 47.7971,-53.61855 v -1.22555 a 151.3575,151.3575 0 0 1 113.36495,-80.88744 149.21276,149.21276 0 0 1 29.4136,-3.06393 153.19585,153.19585 0 0 1 56.06966,10.87693 c 68.17218,26.80928 119.0332,106.3179 84.10453,207.73355 A 442.58282,442.58282 0 0 1 384.11177,523.5549 11.642885,11.642885 0 0 0 401.26972,538.87452 456.98323,456.98323 0 0 0 502.53215,385.67864 C 543.28223,270.16897 484.14865,178.40465 405.09959,147.91867 Z" />
    <path
       id="path20"
       style="fill:#1e7552;stroke-width:15.3195858"
       d="m 614.05874,247.80238 a 11.489689,11.489689 0 0 0 1.22555,-9.03855 265.18202,265.18202 0 0 0 -157.94491,-188.430894 286.62944,286.62944 0 0 0 -257.9818,18.53667 11.489689,11.489689 0 0 0 -3.82991,16.54517 11.949276,11.949276 0 0 0 16.54517,3.82992 258.90099,258.90099 0 0 1 135.11872,-37.532991 265.02883,265.02883 0 0 1 100.95609,20.375041 241.74306,241.74306 0 0 1 143.85089,172.038934 12.408864,12.408864 0 0 0 11.4897,8.88534 h 2.60432 a 13.174843,13.174843 0 0 0 7.96618,-5.20864 z" />
    <path
       id="path22"
       style="fill:#1e7552;stroke-width:15.3195858"
       d="m 352.8598,-27.950135 a 520.86588,520.86588 0 0 0 -75.21914,6.434188 11.796081,11.796081 0 0 0 -9.49817,13.9408539 11.336493,11.336493 0 0 0 13.32803,9.498111 395.3985,395.3985 0 0 1 70.77651,-6.281018 c 131.13563,0 196.85666,71.3892761 218.45726,101.8752561 a 12.102472,12.102472 0 0 0 16.54517,2.604324 13.328039,13.328039 0 0 0 5.20868,-7.659794 10.72371,10.72371 0 0 0 -1.99159,-8.88539 C 566.87442,50.332936 495.48514,-27.950135 352.8598,-27.950135 Z" />
    <path
       id="path24"
       style="fill:#1e7552;stroke-width:15.3195858"
       d="m 509.42599,469.62995 a 12.408864,12.408864 0 0 0 16.54513,-4.59586 362.30819,362.30819 0 0 0 29.41359,-62.35072 C 606.39895,256.22816 526.73711,135.81619 426.0874,96.291656 A 232.7045,232.7045 0 0 0 299.39447,84.189226 227.49584,227.49584 0 0 0 148.34335,186.67726 a 11.030102,11.030102 0 0 0 -1.83832,9.03855 12.868452,12.868452 0 0 0 5.05541,7.65979 12.255668,12.255668 0 0 0 16.54517,-3.21714 202.37172,202.37172 0 0 1 134.96555,-91.91749 192.1076,192.1076 0 0 1 37.83938,-3.6767 203.44409,203.44409 0 0 1 75.21915,13.9408 c 90.38555,35.69467 161.77483,144.61689 115.81606,275.75257 a 428.94839,428.94839 0 0 1 -26.65606,58.67397 11.489689,11.489689 0 0 0 4.1363,16.69834 z" />
    <path
       id="path26"
       style="fill:#1e7552;stroke-width:15.3195858"
       d="M 293.573,563.84542 C 353.47258,521.1038 426.70023,439.60358 451.67113,367.60153 482.31028,281.0459 438.18988,219.15478 385.33732,198.16691 a 121.48431,121.48431 0 0 0 -67.55936,-6.28101 131.28885,131.28885 0 0 0 -94.82824,76.59791 183.83502,183.83502 0 0 1 -82.87893,93.60269 11.819435,11.819435 0 0 0 10.87688,20.98782 204.97605,204.97605 0 0 0 93.60269,-104.63279 106.16472,106.16472 0 0 1 77.6703,-63.11667 95.134626,95.134626 0 0 1 18.68988,-2.45115 101.87524,101.87524 0 0 1 36.30739,7.04701 c 42.74168,16.54518 77.6703,67.40619 52.85261,139.40825 -23.7454,68.17213 -93.75586,144.61688 -150.43834,184.75419 a 12.102472,12.102472 0 0 0 -2.60432,16.54517 10.876905,10.876905 0 0 0 16.54512,3.21709 z" />
    <line
       id="line2275"
       style="fill:none;stroke:#1e7552;stroke-width:6.91757822px;stroke-linecap:round;stroke-linejoin:round"
       y2="525.71423"
       x2="-77.911171"
       y1="265.95844"
       x1="372.99588" />
    <line
       x1="314.86066"
       y1="253.83554"
       x2="733.263"
       y2="492.94278"
       style="fill:none;stroke:#1e7552;stroke-width:6.39324474px;stroke-linecap:round;stroke-linejoin:round"
       id="line2277" />
    <line
       id="line2288"
       style="fill:none;stroke:#1e7552;stroke-width:8.78013802;stroke-linecap:round;stroke-linejoin:round"
       y2="320.35809"
       x2="682.72968"
       y1="187.86609"
       x1="439.34424" />
    <line
       x1="344.02399"
       y1="139.98387"
       x2="564.59009"
       y2="258.12213"
       style="fill:none;stroke:#1e7552;stroke-width:7.89266825;stroke-linecap:round;stroke-linejoin:round"
       id="line2290" />
    <line
       id="line2292"
       style="fill:none;stroke:#1e7552;stroke-width:8.78013802;stroke-linecap:round;stroke-linejoin:round"
       y2="-53.366791"
       x2="352.8598"
       y1="302.40442"
       x1="352.8598" />
    <line
       x1="-135.12181"
       y1="423.75787"
       x2="356.39014"
       y2="139.98387"
       style="fill:none;stroke:#1e7552;stroke-width:8.78013802;stroke-linecap:round;stroke-linejoin:round"
       id="line2294" />
    <line
       x1="344.02399"
       y1="139.98387"
       x2="581.22632"
       y2="266.29279"
       style="fill:none;stroke:#1e7552;stroke-width:8.46322155;stroke-linecap:round;stroke-linejoin:round"
       id="line2296" />
    <path
       id="polygon2298"
       d="M 799.64844,786.18376 352.93555,1044.1017 -89.673828,788.59391 -225.49219,843.9499 353.11133,1181.6491 908.91992,851.64326 Z"
       style="color:#000000;font-style:normal;font-variant:normal;font-weight:normal;font-stretch:normal;font-size:medium;line-height:normal;font-family:sans-serif;font-variant-ligatures:normal;font-variant-position:normal;font-variant-caps:normal;font-variant-numeric:normal;font-variant-alternates:normal;font-feature-settings:normal;text-indent:0;text-align:start;text-decoration:none;text-decoration-line:none;text-decoration-style:solid;text-decoration-color:#000000;letter-spacing:normal;word-spacing:normal;text-transform:none;writing-mode:lr-tb;direction:ltr;text-orientation:mixed;dominant-baseline:auto;baseline-shift:baseline;text-anchor:start;white-space:normal;shape-padding:0;clip-rule:nonzero;display:inline;overflow:visible;visibility:visible;opacity:1;isolation:auto;mix-blend-mode:normal;color-interpolation:sRGB;color-interpolation-filters:linearRGB;solid-color:#000000;solid-opacity:1;vector-effect:none;fill:#f2f4fb;fill-opacity:0.97254902;fill-rule:nonzero;stroke:none;stroke-width:80.39247131;stroke-linecap:square;stroke-linejoin:miter;stroke-miterlimit:4;stroke-dasharray:none;stroke-dashoffset:0;stroke-opacity:1;color-rendering:auto;image-rendering:auto;shape-rendering:auto;text-rendering:auto;enable-background:accumulate" />
  </g>
</svg>
