<svg width="73" height="75" viewBox="0 0 73 75" fill="none" xmlns="http://www.w3.org/2000/svg">
<path d="M6.2002 28.7H8.5002" stroke="#f7bf20" stroke-width="1.5" stroke-miterlimit="10" stroke-linejoin="round"/>
<path d="M6.2002 33.3999H22.3002" stroke="#f7bf20" stroke-width="1.5" stroke-miterlimit="10" stroke-linejoin="round"/>
<path d="M24.7002 33.3999H29.3002" stroke="#f7bf20" stroke-width="1.5" stroke-miterlimit="10" stroke-linejoin="round"/>
<path d="M10.7998 28.7H13.0998" stroke="#f7bf20" stroke-width="1.5" stroke-miterlimit="10" stroke-linejoin="round"/>
<path d="M15.4004 28.7H17.7004" stroke="#f7bf20" stroke-width="1.5" stroke-miterlimit="10" stroke-linejoin="round"/>
<path d="M20 28.7H22.3" stroke="#f7bf20" stroke-width="1.5" stroke-miterlimit="10" stroke-linejoin="round"/>
<path d="M27 28.7H29.3" stroke="#f7bf20" stroke-width="1.5" stroke-miterlimit="10" stroke-linejoin="round"/>
<path d="M66.8998 22V1H0.799805V40.5H33.2998" stroke="#f7bf20" stroke-width="1.5" stroke-miterlimit="10" stroke-linejoin="round"/>
<path d="M52.4998 59.2999C63.1037 59.2999 71.6998 50.7038 71.6998 40.0999C71.6998 29.496 63.1037 20.8999 52.4998 20.8999C41.8959 20.8999 33.2998 29.496 33.2998 40.0999C33.2998 50.7038 41.8959 59.2999 52.4998 59.2999Z" stroke="#1e7552" stroke-width="1.5" stroke-miterlimit="10" stroke-linejoin="round"/>
<path d="M66.8996 40.1C66.8996 48 60.4996 54.5 52.4996 54.5C44.4996 54.5 38.0996 48.1 38.0996 40.1C38.0996 32.1 44.4996 25.7 52.4996 25.7" stroke="#1e7552" stroke-width="1.5" stroke-miterlimit="10" stroke-linejoin="round"/>
<path d="M48.7002 58.8999V74.1999" stroke="#1e7552" stroke-width="1.5" stroke-miterlimit="10" stroke-linejoin="round"/>
<path d="M56 58.8999V73.3999" stroke="#1e7552" stroke-width="1.5" stroke-miterlimit="10" stroke-linejoin="round"/>
<path d="M48.7002 64.3H56.0002" stroke="#1e7552" stroke-width="1.5" stroke-miterlimit="10" stroke-linejoin="round"/>
<path d="M64.8 30.8999L51.3 44.3999L45.5 38.6999" stroke="#f7bf20" stroke-width="1.5" stroke-miterlimit="10" stroke-linejoin="round"/>
<path d="M60.4002 11.4999V15.5999H51.2002V6.3999H57.0002" stroke="#f7bf20" stroke-width="1.5" stroke-miterlimit="10" stroke-linejoin="round"/>
<path d="M16.7994 10C16.7994 12.2 15.4994 14.2 13.5994 14.2C11.6994 14.2 10.3994 12.3 10.3994 10C10.3994 7.7 10.9994 6.5 13.5994 6.5C16.1994 6.5 16.7994 7.7 16.7994 10Z" stroke="#f7bf20" stroke-width="1.5" stroke-miterlimit="10" stroke-linejoin="round"/>
<path d="M15.4996 13.5L18.8996 15.4C19.5996 15.8 19.9996 16.5 19.9996 17.3C19.9996 18.4 19.3996 19.2 18.6996 19.2H8.39961C7.79961 19.2 7.09961 18.3 7.09961 17.3C7.09961 16.5 7.49961 15.8 8.19961 15.4L11.5996 13.5" stroke="#f7bf20" stroke-width="1.5" stroke-miterlimit="10" stroke-linejoin="round"/>
<path d="M53.7002 10L55.7002 12.1L60.4002 7.5" stroke="#f7bf20" stroke-width="1.5" stroke-miterlimit="10" stroke-linejoin="round"/>
</svg>
