<svg width="84" height="72" viewBox="0 0 84 72" fill="none" xmlns="http://www.w3.org/2000/svg">
<path d="M12.6653 20.5483H1V50.827H12.6653V20.5483Z" stroke="#f7bf20" stroke-width="1.5" stroke-miterlimit="10"/>
<path d="M6.83203 36.7993V34.5754" stroke="#f7bf20" stroke-width="1.5" stroke-miterlimit="10"/>
<path d="M6.83203 41.5895V39.1946" stroke="#f7bf20" stroke-width="1.5" stroke-miterlimit="10"/>
<path d="M6.83203 32.1806V29.9568" stroke="#f7bf20" stroke-width="1.5" stroke-miterlimit="10"/>
<path d="M26.8564 28.2311V43.2849H38.5217V28.2311H26.8564Z" stroke="#f7bf20" stroke-width="1.5" stroke-miterlimit="10"/>
<path d="M52.5576 1.00038V16.0542H64.2229V1.00038H52.5576Z" stroke="#f7bf20" stroke-width="1.5" stroke-miterlimit="10"/>
<path d="M52.5215 55.2973V70.3511H64.1868V55.2973H52.5215Z" stroke="#f7bf20" stroke-width="1.5" stroke-miterlimit="10"/>
<path d="M26.7773 1.06166V16.1155H38.4426V1.06166H26.7773Z" stroke="#f7bf20" stroke-width="1.5" stroke-miterlimit="10"/>
<path d="M12.665 35.7732H26.732" stroke="#1e7552" stroke-width="1.5" stroke-miterlimit="10"/>
<path d="M38.3975 63.054H52.636" stroke="#1e7552" stroke-width="1.5" stroke-miterlimit="10"/>
<path d="M26.4865 8.75684H19.8379V63.0541H26.4865" stroke="#1e7552" stroke-width="1.5" stroke-miterlimit="10"/>
<path d="M45.3242 63.0544V8.75708H53.081" stroke="#1e7552" stroke-width="1.5" stroke-miterlimit="10"/>
<path d="M45.4307 35.4312H52.6357" stroke="#1e7552" stroke-width="1.5" stroke-miterlimit="10"/>
<path d="M26.7422 55.2973V70.3511H38.4075V55.2973H26.7422Z" stroke="#f7bf20" stroke-width="1.5" stroke-miterlimit="10"/>
<path d="M52.6348 28.1078V43.1616H64.3V28.1078H52.6348Z" stroke="#f7bf20" stroke-width="1.5" stroke-miterlimit="10"/>
<path d="M26.7324 43.3002L38.3977 28.2463" stroke="#f7bf20" stroke-width="1.5" stroke-miterlimit="10"/>
<path d="M52.6367 70.3512L64.302 55.2974" stroke="#f7bf20" stroke-width="1.5" stroke-miterlimit="10"/>
<path d="M52.6367 16.0541L64.302 1.00024" stroke="#f7bf20" stroke-width="1.5" stroke-miterlimit="10"/>
<path d="M26.7324 16.0538L38.3977 1" stroke="#f7bf20" stroke-width="1.5" stroke-miterlimit="10"/>
<path d="M77.167 36.4572V34.5754" stroke="#f7bf20" stroke-width="1.5" stroke-miterlimit="10"/>
<path d="M64.3008 35.4312H71.3343" stroke="#1e7552" stroke-width="1.5" stroke-miterlimit="10"/>
<path d="M77.1676 41.2472C80.3889 41.2472 83.0002 38.6432 83.0002 35.431C83.0002 32.2188 80.3889 29.6147 77.1676 29.6147C73.9463 29.6147 71.335 32.2188 71.335 35.431C71.335 38.6432 73.9463 41.2472 77.1676 41.2472Z" stroke="#f7bf20" stroke-width="1.5" stroke-miterlimit="10"/>
<path d="M30 62.7659L32 64.8659L35.5 60.7659" stroke="#f7bf20" stroke-width="1.5" stroke-miterlimit="10" stroke-linejoin="round"/>
<path d="M56 35.7659L58 37.8659L61.5 33.7659" stroke="#f7bf20" stroke-width="1.5" stroke-miterlimit="10" stroke-linejoin="round"/>
</svg>
