<svg width="79" height="76" viewBox="0 0 79 76" fill="none" xmlns="http://www.w3.org/2000/svg">
<path d="M39.1859 7.26278C40.913 7.26278 42.3131 5.86081 42.3131 4.13139C42.3131 2.40197 40.913 1 39.1859 1C37.4587 1 36.0586 2.40197 36.0586 4.13139C36.0586 5.86081 37.4587 7.26278 39.1859 7.26278Z" stroke="#f7bf20" stroke-width="1.5" stroke-miterlimit="10" stroke-linecap="round" stroke-linejoin="round"/>
<path d="M11.5335 15.8331C13.2607 15.8331 14.6608 14.4311 14.6608 12.7017C14.6608 10.9723 13.2607 9.57031 11.5335 9.57031C9.80638 9.57031 8.40625 10.9723 8.40625 12.7017C8.40625 14.4311 9.80638 15.8331 11.5335 15.8331Z" stroke="#f7bf20" stroke-width="1.5" stroke-miterlimit="10" stroke-linecap="round" stroke-linejoin="round"/>
<path d="M4.12727 41.214C5.85441 41.214 7.25454 39.812 7.25454 38.0826C7.25454 36.3531 5.85441 34.9512 4.12727 34.9512C2.40013 34.9512 1 36.3531 1 38.0826C1 39.812 2.40013 41.214 4.12727 41.214Z" stroke="#f7bf20" stroke-width="1.5" stroke-miterlimit="10" stroke-linecap="round" stroke-linejoin="round"/>
<path d="M74.4085 41.214C76.1357 41.214 77.5358 39.812 77.5358 38.0826C77.5358 36.3531 76.1357 34.9512 74.4085 34.9512C72.6814 34.9512 71.2812 36.3531 71.2812 38.0826C71.2812 39.812 72.6814 41.214 74.4085 41.214Z" stroke="#f7bf20" stroke-width="1.5" stroke-miterlimit="10" stroke-linecap="round" stroke-linejoin="round"/>
<path d="M67.0023 66.1002C68.7294 66.1002 70.1295 64.6982 70.1295 62.9688C70.1295 61.2394 68.7294 59.8374 67.0023 59.8374C65.2751 59.8374 63.875 61.2394 63.875 62.9688C63.875 64.6982 65.2751 66.1002 67.0023 66.1002Z" stroke="#f7bf20" stroke-width="1.5" stroke-miterlimit="10" stroke-linecap="round" stroke-linejoin="round"/>
<path d="M12.0277 66.1002C13.7548 66.1002 15.1549 64.6982 15.1549 62.9688C15.1549 61.2394 13.7548 59.8374 12.0277 59.8374C10.3005 59.8374 8.90039 61.2394 8.90039 62.9688C8.90039 64.6982 10.3005 66.1002 12.0277 66.1002Z" stroke="#f7bf20" stroke-width="1.5" stroke-miterlimit="10" stroke-linecap="round" stroke-linejoin="round"/>
<path d="M39.3499 75.0001C41.0771 75.0001 42.4772 73.5981 42.4772 71.8687C42.4772 70.1393 41.0771 68.7373 39.3499 68.7373C37.6228 68.7373 36.2227 70.1393 36.2227 71.8687C36.2227 73.5981 37.6228 75.0001 39.3499 75.0001Z" stroke="#f7bf20" stroke-width="1.5" stroke-miterlimit="10" stroke-linecap="round" stroke-linejoin="round"/>
<path d="M67.0023 15.8331C68.7294 15.8331 70.1295 14.4311 70.1295 12.7017C70.1295 10.9723 68.7294 9.57031 67.0023 9.57031C65.2751 9.57031 63.875 10.9723 63.875 12.7017C63.875 14.4311 65.2751 15.8331 67.0023 15.8331Z" stroke="#f7bf20" stroke-width="1.5" stroke-miterlimit="10" stroke-linecap="round" stroke-linejoin="round"/>
<path d="M31.9434 39.0714L36.2228 43.3564L46.9213 32.8086" stroke="#f7bf20" stroke-width="1.5" stroke-miterlimit="10" stroke-linecap="round" stroke-linejoin="round"/>
<path d="M40.3377 63.7929C40.3377 63.7929 42.8066 62.6392 45.9339 60.3319C47.7444 59.1782 49.7195 57.5301 51.53 55.7172C53.8344 53.5747 55.9741 51.1025 57.62 48.1359C57.7846 47.8063 58.1138 47.3119 58.2784 46.9823C58.9367 45.499 59.5951 44.0157 59.9243 42.3676C60.2535 41.0491 60.4181 39.5658 60.4181 38.0825V21.6015C60.4181 20.6127 59.7597 19.7886 58.9367 19.459L40.1731 12.2073C39.6793 12.0425 39.021 12.0425 38.5272 12.2073L19.7636 19.2942C18.776 19.6238 18.2822 20.6127 18.2822 21.4367V37.9177C18.2822 39.401 18.4468 40.8843 18.776 42.2028C19.1052 43.8509 19.7636 45.3342 20.4219 46.8174C20.5865 47.3119 20.9157 47.6415 21.0803 47.9711C22.7262 50.9377 24.866 53.4098 27.1703 55.5524C29.1454 57.3653 31.1205 58.8486 32.7664 60.1671C35.8937 62.3096 38.198 63.4633 38.3626 63.6281C39.021 64.1225 39.8439 64.1225 40.3377 63.7929Z" stroke="#1e7552" stroke-width="1.5" stroke-miterlimit="10" stroke-linecap="round" stroke-linejoin="round"/>
<path d="M40.0089 53.9041C40.0089 53.9041 41.4902 53.08 43.4653 51.7616C44.6175 50.9375 45.7696 50.1135 46.9218 48.9598C48.2385 47.6413 49.7199 46.158 50.7074 44.3451C50.872 44.1803 51.0366 43.8507 51.0366 43.5211C51.5304 42.697 51.8596 41.7082 52.0242 40.7193C52.1888 39.8952 52.3534 39.0712 52.3534 38.0823V27.8641C52.3534 27.2049 52.0242 26.7104 51.3658 26.5456L39.8443 22.2606C39.5151 22.0958 39.1859 22.0958 38.8567 22.2606L27.3352 26.5456C26.6768 26.7104 26.3477 27.3697 26.3477 27.8641V38.0823C26.3477 39.0712 26.5123 39.8952 26.6768 40.7193C26.8414 41.7082 27.3352 42.697 27.6644 43.5211C27.829 43.8507 27.9936 44.0155 27.9936 44.3451C28.9811 46.158 30.2979 47.6413 31.7792 48.9598C32.9314 50.1135 34.2481 51.1023 35.2357 51.7616C37.2108 53.08 38.5275 53.9041 38.6921 53.9041C39.1859 54.0689 39.6797 54.0689 40.0089 53.9041Z" stroke="#1e7552" stroke-width="1.5" stroke-miterlimit="10" stroke-linecap="round" stroke-linejoin="round"/>
<path d="M26.3472 38.0823H7.41895" stroke="#f7bf20" stroke-width="1.5" stroke-miterlimit="10" stroke-linecap="round" stroke-linejoin="round"/>
<path d="M52.3535 38.0823H71.1171" stroke="#f7bf20" stroke-width="1.5" stroke-miterlimit="10" stroke-linecap="round" stroke-linejoin="round"/>
<path d="M39.3496 21.766V7.42749" stroke="#f7bf20" stroke-width="1.5" stroke-miterlimit="10" stroke-linecap="round" stroke-linejoin="round"/>
<path d="M26.1824 27.3698L13.8379 15.009" stroke="#f7bf20" stroke-width="1.5" stroke-miterlimit="10" stroke-linecap="round" stroke-linejoin="round"/>
<path d="M52.3535 27.3698L64.698 15.009" stroke="#f7bf20" stroke-width="1.5" stroke-miterlimit="10" stroke-linecap="round" stroke-linejoin="round"/>
<path d="M39.3496 54.2336V68.7369" stroke="#f7bf20" stroke-width="1.5" stroke-miterlimit="10" stroke-linecap="round" stroke-linejoin="round"/>
<path d="M29.145 45.8284L14.167 60.6613" stroke="#f7bf20" stroke-width="1.5" stroke-miterlimit="10" stroke-linecap="round" stroke-linejoin="round"/>
<path d="M49.5547 45.8284L64.5327 60.9909" stroke="#f7bf20" stroke-width="1.5" stroke-miterlimit="10" stroke-linecap="round" stroke-linejoin="round"/>
</svg>
