<svg width="205" height="155" viewBox="0 0 205 155" fill="none" xmlns="http://www.w3.org/2000/svg">
<path d="M125.981 12.6989C125.981 12.6989 115.421 24.7752 102.499 24.7752C89.5782 24.7752 79.0176 12.6989 79.0176 12.6989C79.0176 12.6989 89.4539 0.622559 102.499 0.622559C115.545 0.622559 125.981 12.6989 125.981 12.6989Z" stroke="#1e7552" stroke-miterlimit="10" stroke-linejoin="round"/>
<path d="M102.5 24.7752C109.156 24.7752 114.551 19.3684 114.551 12.6989C114.551 6.0293 109.156 0.622559 102.5 0.622559C95.8439 0.622559 90.4482 6.0293 90.4482 12.6989C90.4482 19.3684 95.8439 24.7752 102.5 24.7752Z" stroke="#1e7552" stroke-miterlimit="10" stroke-linejoin="round"/>
<path d="M103.618 6.10046C103.742 6.47396 103.742 6.84745 103.742 7.22095C103.742 10.9559 100.76 13.8193 97.1572 13.8193C96.7845 13.8193 96.4118 13.8193 96.0391 13.6948C96.536 16.8073 99.2694 19.1728 102.5 19.1728C106.227 19.1728 109.085 16.1848 109.085 12.5744C109.085 9.33741 106.724 6.72295 103.618 6.10046Z" stroke="#1e7552" stroke-miterlimit="10" stroke-linejoin="round"/>
<path d="M190.34 121.884L203.758 129.727V145.04L190.34 152.884L177.17 145.04V129.727L190.34 121.884Z" stroke="#f7bf20" stroke-width="2" stroke-miterlimit="10" stroke-linecap="round" stroke-linejoin="round"/>
<path d="M197.173 133.462L190.34 129.603L183.631 133.462V134.458V141.305L190.34 145.289L197.173 141.305V134.458V133.462Z" stroke="#f7bf20" stroke-miterlimit="10" stroke-linecap="round" stroke-linejoin="round"/>
<path d="M203.758 129.727L190.34 137.446V152.884" stroke="#f7bf20" stroke-miterlimit="10" stroke-linecap="round" stroke-linejoin="round"/>
<path d="M190.464 137.446L177.17 129.727" stroke="#f7bf20" stroke-miterlimit="10" stroke-linecap="round" stroke-linejoin="round"/>
<path d="M95.7907 90.5101L68.8301 106.57" stroke="#f7bf20" stroke-miterlimit="10" stroke-linejoin="round"/>
<path d="M116.042 94.245L136.045 106.197" stroke="#f7bf20" stroke-miterlimit="10" stroke-linejoin="round"/>
<path d="M156.297 117.277L176.3 129.229" stroke="#f7bf20" stroke-miterlimit="10" stroke-linejoin="round"/>
<path d="M102.624 71.0884L89.4541 78.8073V94.245L102.624 101.964L116.042 94.245V78.8073L102.624 71.0884Z" stroke="#f7bf20" stroke-width="2" stroke-miterlimit="10" stroke-linecap="round" stroke-linejoin="round"/>
<path d="M109.458 82.6667L102.624 78.6827L95.791 82.6667V83.5382V90.51L102.624 94.3695L109.458 90.51V83.5382V82.6667Z" stroke="#f7bf20" stroke-miterlimit="10" stroke-linecap="round" stroke-linejoin="round"/>
<path d="M116.042 78.8073L102.624 86.5261V101.964" stroke="#f7bf20" stroke-miterlimit="10" stroke-linecap="round" stroke-linejoin="round"/>
<path d="M89.4541 78.8073L102.624 86.5261" stroke="#f7bf20" stroke-miterlimit="10" stroke-linecap="round" stroke-linejoin="round"/>
<path d="M102.624 122.88L89.4541 130.599V146.036L102.624 153.755L116.042 146.036V130.599L102.624 122.88Z" stroke="#f7bf20" stroke-width="2" stroke-miterlimit="10" stroke-linecap="round" stroke-linejoin="round"/>
<path d="M109.458 134.458L102.624 130.474L95.791 134.458V135.329V142.301L102.624 146.161L109.458 142.301V135.329V134.458Z" stroke="#f7bf20" stroke-miterlimit="10" stroke-linecap="round" stroke-linejoin="round"/>
<path d="M116.042 130.599L102.624 138.317V153.755" stroke="#f7bf20" stroke-miterlimit="10" stroke-linecap="round" stroke-linejoin="round"/>
<path d="M89.4541 130.599L102.624 138.317" stroke="#f7bf20" stroke-miterlimit="10" stroke-linecap="round" stroke-linejoin="round"/>
<path d="M145.239 123.253C151.346 123.253 156.297 118.292 156.297 112.173C156.297 106.053 151.346 101.092 145.239 101.092C139.132 101.092 134.182 106.053 134.182 112.173C134.182 118.292 139.132 123.253 145.239 123.253Z" stroke="#f7bf20" stroke-width="2" stroke-miterlimit="10" stroke-linecap="round" stroke-linejoin="round"/>
<path d="M150.333 108.811L143.624 115.534L140.146 112.173" stroke="#f7bf20" stroke-miterlimit="10" stroke-linejoin="round"/>
<path d="M89.4547 130.599L68.085 118.398" stroke="#f7bf20" stroke-miterlimit="10" stroke-linecap="round" stroke-linejoin="round"/>
<path d="M115.421 130.599L136.666 118.398" stroke="#f7bf20" stroke-miterlimit="10" stroke-linecap="round" stroke-linejoin="round"/>
<path d="M28.5752 93.9961L51.1873 106.321" stroke="#f7bf20" stroke-miterlimit="10" stroke-linecap="round" stroke-linejoin="round"/>
<path d="M102.5 122.88V101.964" stroke="#f7bf20" stroke-miterlimit="10" stroke-linecap="round" stroke-linejoin="round"/>
<path d="M102.5 71.0884V27.0161" stroke="#1e7552" stroke-miterlimit="10" stroke-linejoin="round" stroke-dasharray="3 3"/>
<path d="M145.239 100.096V49.9237" stroke="#1e7552" stroke-miterlimit="10" stroke-linejoin="round" stroke-dasharray="3 3"/>
<path d="M59.3877 101.092V52.4137" stroke="#1e7552" stroke-miterlimit="10" stroke-linejoin="round" stroke-dasharray="3 3"/>
<path d="M190.588 121.884V120.016" stroke="#1e7552" stroke-linejoin="round"/>
<path d="M190.588 116.406V52.4137" stroke="#1e7552" stroke-linejoin="round" stroke-dasharray="2.94 2.94"/>
<path d="M190.587 50.5463V48.6788H188.724" stroke="#1e7552" stroke-linejoin="round"/>
<path d="M184.996 48.6788H18.1387" stroke="#1e7552" stroke-linejoin="round" stroke-dasharray="2.95 2.95"/>
<path d="M16.3998 48.6788H14.5361V50.5463" stroke="#1e7552" stroke-linejoin="round"/>
<path d="M14.5361 54.0322V66.233" stroke="#1e7552" stroke-linejoin="round" stroke-dasharray="2.81 2.81"/>
<path d="M14.5361 68.1005V69.9679" stroke="#1e7552" stroke-linejoin="round"/>
<path d="M59.3877 123.253C65.4946 123.253 70.4452 118.292 70.4452 112.173C70.4452 106.053 65.4946 101.092 59.3877 101.092C53.2807 101.092 48.3301 106.053 48.3301 112.173C48.3301 118.292 53.2807 123.253 59.3877 123.253Z" stroke="#f7bf20" stroke-width="2" stroke-miterlimit="10" stroke-linecap="round" stroke-linejoin="round"/>
<path d="M64.4818 108.811L57.6485 115.534L54.2939 112.173" stroke="#f7bf20" stroke-miterlimit="10" stroke-linejoin="round"/>
<path d="M14.5361 69.9679L1.24219 77.6868V93.1245L14.5361 100.843L27.8301 93.1245V77.6868L14.5361 69.9679Z" stroke="#f7bf20" stroke-width="2" stroke-miterlimit="10" stroke-linecap="round" stroke-linejoin="round"/>
<path d="M21.2456 81.4217L14.5365 77.5623L7.70312 81.4217V82.4177V89.2651L14.5365 93.249L21.2456 89.2651V82.4177V81.4217Z" stroke="#f7bf20" stroke-miterlimit="10" stroke-linecap="round" stroke-linejoin="round"/>
<path d="M27.8301 77.6868L14.5361 85.4056V100.843" stroke="#f7bf20" stroke-miterlimit="10" stroke-linecap="round" stroke-linejoin="round"/>
<path d="M14.6604 85.4056L1.24219 77.6868" stroke="#f7bf20" stroke-miterlimit="10" stroke-linecap="round" stroke-linejoin="round"/>
</svg>
