<svg width="243" height="155" viewBox="0 0 243 155" fill="none" xmlns="http://www.w3.org/2000/svg">
<path d="M109.598 9.65662H107.738" stroke="#1e7552" stroke-linejoin="round"/>
<path d="M104.019 9.65662H39.9219" stroke="#1e7552" stroke-linejoin="round" stroke-dasharray="2.96 2.96"/>
<path d="M38.0618 9.65662H36.2021V11.5136" stroke="#1e7552" stroke-linejoin="round"/>
<path d="M36.2021 14.9801V34.0456" stroke="#1e7552" stroke-linejoin="round" stroke-dasharray="2.8 2.8"/>
<path d="M36.2021 35.7788V37.6358" stroke="#1e7552" stroke-linejoin="round"/>
<path d="M109.598 144.972H107.738" stroke="#1e7552" stroke-linejoin="round"/>
<path d="M104.019 144.972H39.9219" stroke="#1e7552" stroke-linejoin="round" stroke-dasharray="2.96 2.96"/>
<path d="M38.0618 144.972H36.2021V143.115" stroke="#1e7552" stroke-linejoin="round"/>
<path d="M36.2021 139.896V122.688" stroke="#1e7552" stroke-linejoin="round" stroke-dasharray="2.54 2.54"/>
<path d="M36.2021 121.078V119.221" stroke="#1e7552" stroke-linejoin="round"/>
<path d="M124.723 1.23804L140.097 10.028V27.7316L124.723 36.5216L109.598 27.7316V10.028L124.723 1.23804Z" stroke="#f7bf20" stroke-width="2" stroke-miterlimit="10" stroke-linecap="round" stroke-linejoin="round"/>
<path d="M132.534 14.4848L124.723 9.90417L116.912 14.4848V15.4753V23.3986L124.723 27.8555L132.534 23.3986V15.4753V14.4848Z" stroke="#f7bf20" stroke-miterlimit="10" stroke-linecap="round" stroke-linejoin="round"/>
<path d="M140.096 10.028L124.723 18.9417V36.5216" stroke="#f7bf20" stroke-miterlimit="10" stroke-linecap="round" stroke-linejoin="round"/>
<path d="M124.847 18.9417L109.598 10.028" stroke="#f7bf20" stroke-miterlimit="10" stroke-linecap="round" stroke-linejoin="round"/>
<path d="M226.51 60.2915L241.76 69.2052V86.7851L226.51 95.575L211.261 86.7851V69.2052L226.51 60.2915Z" stroke="#f7bf20" stroke-width="2" stroke-miterlimit="10" stroke-linecap="round" stroke-linejoin="round"/>
<path d="M234.197 73.5383L226.51 69.0814L218.699 73.5383V74.6525V82.452L226.51 86.9089L234.197 82.452V74.6525V73.5383Z" stroke="#f7bf20" stroke-miterlimit="10" stroke-linecap="round" stroke-linejoin="round"/>
<path d="M241.759 69.2053L226.51 77.9953V95.5751" stroke="#f7bf20" stroke-miterlimit="10" stroke-linecap="round" stroke-linejoin="round"/>
<path d="M226.634 77.9953L211.261 69.2053" stroke="#f7bf20" stroke-miterlimit="10" stroke-linecap="round" stroke-linejoin="round"/>
<path d="M124.847 118.479L140.097 127.392V144.972L124.847 153.762L109.598 144.972V127.392L124.847 118.479Z" stroke="#f7bf20" stroke-width="2" stroke-miterlimit="10" stroke-linecap="round" stroke-linejoin="round"/>
<path d="M132.534 131.725L124.847 127.145L117.036 131.725V132.716V140.639L124.847 145.096L132.534 140.639V132.716V131.725Z" stroke="#f7bf20" stroke-miterlimit="10" stroke-linecap="round" stroke-linejoin="round"/>
<path d="M140.097 127.392L124.848 136.182V153.762" stroke="#f7bf20" stroke-miterlimit="10" stroke-linecap="round" stroke-linejoin="round"/>
<path d="M124.971 136.182L109.598 127.392" stroke="#f7bf20" stroke-miterlimit="10" stroke-linecap="round" stroke-linejoin="round"/>
<path d="M125.219 89.0136C132.203 89.0136 137.865 83.36 137.865 76.3859C137.865 69.4117 132.203 63.7581 125.219 63.7581C118.235 63.7581 112.573 69.4117 112.573 76.3859C112.573 83.36 118.235 89.0136 125.219 89.0136Z" stroke="#f7bf20" stroke-width="2" stroke-miterlimit="10" stroke-linecap="round" stroke-linejoin="round"/>
<path d="M131.047 72.4242L123.236 80.2237L119.269 76.3859" stroke="#f7bf20" stroke-miterlimit="10" stroke-linejoin="round"/>
<path d="M171.463 56.3299C178.447 56.3299 184.109 50.6763 184.109 43.7021C184.109 36.728 178.447 31.0743 171.463 31.0743C164.479 31.0743 158.817 36.728 158.817 43.7021C158.817 50.6763 164.479 56.3299 171.463 56.3299Z" stroke="#f7bf20" stroke-width="2" stroke-miterlimit="10" stroke-linecap="round" stroke-linejoin="round"/>
<path d="M177.291 39.8643L169.48 47.6638L165.637 43.7021" stroke="#f7bf20" stroke-miterlimit="10" stroke-linejoin="round"/>
<path d="M174.067 119.717C181.051 119.717 186.713 114.063 186.713 107.089C186.713 100.115 181.051 94.4609 174.067 94.4609C167.083 94.4609 161.421 100.115 161.421 107.089C161.421 114.063 167.083 119.717 174.067 119.717Z" stroke="#f7bf20" stroke-width="2" stroke-miterlimit="10" stroke-linecap="round" stroke-linejoin="round"/>
<path d="M179.894 103.127L172.084 110.926L168.24 107.089" stroke="#f7bf20" stroke-miterlimit="10" stroke-linejoin="round"/>
<path d="M124.723 63.758V36.5216" stroke="#f7bf20" stroke-miterlimit="10" stroke-linecap="round" stroke-linejoin="round"/>
<path d="M124.723 119.469V89.5088" stroke="#f7bf20" stroke-miterlimit="10" stroke-linecap="round" stroke-linejoin="round"/>
<path d="M181.258 51.6255L211.261 69.2054" stroke="#f7bf20" stroke-miterlimit="10" stroke-linecap="round" stroke-linejoin="round"/>
<path d="M140.097 27.7317L158.818 38.6263" stroke="#f7bf20" stroke-miterlimit="10" stroke-linecap="round" stroke-linejoin="round"/>
<path d="M163.281 114.145L140.097 127.392" stroke="#f7bf20" stroke-miterlimit="10" stroke-linecap="round" stroke-linejoin="round"/>
<path d="M211.261 86.7852L184.729 102.384" stroke="#f7bf20" stroke-miterlimit="10" stroke-linecap="round" stroke-linejoin="round"/>
<path d="M26.4082 63.3866V67.5959L27.772 70.1957V114.764" stroke="#1e7552" stroke-miterlimit="10" stroke-linejoin="round"/>
<path d="M17.3574 74.1573H27.7717" stroke="#1e7552" stroke-miterlimit="10" stroke-linejoin="round"/>
<path d="M17.3574 79.2333H27.7717" stroke="#1e7552" stroke-miterlimit="10" stroke-linejoin="round"/>
<path d="M17.3574 84.4329H27.7717" stroke="#1e7552" stroke-miterlimit="10" stroke-linejoin="round"/>
<path d="M18.7212 63.3866V67.5958L17.3574 70.1957V119.221H79.5952V46.4257L69.9248 36.7692H40.0457" stroke="#1e7552" stroke-miterlimit="10" stroke-linejoin="round"/>
<path d="M45.997 72.6718L41.1618 77.5L37.5664 73.9098" stroke="#1e7552" stroke-miterlimit="10" stroke-linejoin="round"/>
<path d="M50.832 72.6718H56.5351" stroke="#1e7552" stroke-miterlimit="10" stroke-linejoin="round"/>
<path d="M50.832 77.5H63.7259" stroke="#1e7552" stroke-miterlimit="10" stroke-linejoin="round"/>
<path d="M45.997 84.8043L41.1618 89.6326L37.5664 85.9185" stroke="#1e7552" stroke-miterlimit="10" stroke-linejoin="round"/>
<path d="M50.832 84.8043H71.0407" stroke="#1e7552" stroke-miterlimit="10" stroke-linejoin="round"/>
<path d="M50.832 89.6326H54.0555" stroke="#1e7552" stroke-miterlimit="10" stroke-linejoin="round"/>
<path d="M50.832 96.8131H71.0407" stroke="#1e7552" stroke-miterlimit="10" stroke-linejoin="round"/>
<path d="M50.832 101.641H58.8907" stroke="#1e7552" stroke-miterlimit="10" stroke-linejoin="round"/>
<path d="M56.5352 89.6326H71.0408" stroke="#1e7552" stroke-miterlimit="10" stroke-linejoin="round"/>
<path d="M58.8906 72.6718H71.0406" stroke="#1e7552" stroke-miterlimit="10" stroke-linejoin="round"/>
<path d="M79.5952 46.4257H69.9248V36.7692" stroke="#1e7552" stroke-miterlimit="10" stroke-linejoin="round"/>
<path d="M44.8812 95.5751L37.5664 102.879" stroke="#1e7552" stroke-miterlimit="10" stroke-linejoin="round"/>
<path d="M37.5664 95.5751L44.8812 102.879" stroke="#1e7552" stroke-miterlimit="10" stroke-linejoin="round"/>
<path d="M50.46 50.8826H53.0635" stroke="#1e7552" stroke-miterlimit="10" stroke-linejoin="round"/>
<path d="M55.667 50.8826H58.2706" stroke="#1e7552" stroke-miterlimit="10" stroke-linejoin="round"/>
<path d="M60.874 50.8826H63.4776" stroke="#1e7552" stroke-miterlimit="10" stroke-linejoin="round"/>
<path d="M50.46 56.0823H71.0406" stroke="#1e7552" stroke-miterlimit="10" stroke-linejoin="round"/>
<path d="M17.3574 39.369V59.9201" stroke="#1e7552" stroke-miterlimit="10" stroke-linejoin="round"/>
<path d="M9.6709 39.369V59.9201" stroke="#1e7552" stroke-miterlimit="10" stroke-linejoin="round"/>
<path d="M27.7715 39.369V59.9201" stroke="#1e7552" stroke-miterlimit="10" stroke-linejoin="round"/>
<path d="M35.458 39.369V59.9201" stroke="#1e7552" stroke-miterlimit="10" stroke-linejoin="round"/>
<path d="M26.4079 63.3866H17.3574V60.044H9.67063C9.67063 61.5296 8.55481 62.6438 7.06706 62.6438H3.22369C1.73593 62.6438 0.620117 61.5296 0.620117 60.044V39.3691C0.620117 37.8834 1.73593 36.7692 3.22369 36.7692H7.06706C8.55481 36.7692 9.67063 37.8834 9.67063 39.3691H17.4813V35.7788H27.7716V39.3691H35.5824C35.5824 37.8834 36.6982 36.7692 38.1859 36.7692H42.0293C43.5171 36.7692 44.6329 37.8834 44.6329 39.3691V60.044C44.6329 61.5296 43.5171 62.6438 42.0293 62.6438H38.1859C36.6982 62.6438 35.5824 61.5296 35.5824 60.044H27.7716V63.3866H26.4079Z" stroke="#1e7552" stroke-miterlimit="10" stroke-linejoin="round"/>
</svg>
