<svg width="221" height="157" viewBox="0 0 221 157" fill="none" xmlns="http://www.w3.org/2000/svg">
<path d="M24.1451 73.97L8.74658 82.9059V100.654L24.1451 109.59L39.2973 100.654V82.9059L24.1451 73.97Z" stroke="#f7bf20" stroke-width="2" stroke-miterlimit="10" stroke-linecap="round" stroke-linejoin="round"/>
<path d="M16.3843 87.2499L24.1451 82.7819L31.906 87.2499V88.3668V96.3099L24.1451 100.778L16.3843 96.3099V88.3668V87.2499Z" stroke="#f7bf20" stroke-miterlimit="10" stroke-linecap="round" stroke-linejoin="round"/>
<path d="M8.74658 82.906L24.1451 91.842V109.59" stroke="#f7bf20" stroke-miterlimit="10" stroke-linecap="round" stroke-linejoin="round"/>
<path d="M23.8989 91.842L39.2975 82.906" stroke="#f7bf20" stroke-miterlimit="10" stroke-linecap="round" stroke-linejoin="round"/>
<path d="M199.319 73.97L184.043 82.9059V100.654L199.319 109.59L214.471 100.654V82.9059L199.319 73.97Z" stroke="#f7bf20" stroke-width="2" stroke-miterlimit="10" stroke-linecap="round" stroke-linejoin="round"/>
<path d="M191.558 87.2499L199.319 82.7819L207.08 87.2499V88.3668V96.3099L199.319 100.778L191.558 96.3099V88.3668V87.2499Z" stroke="#f7bf20" stroke-miterlimit="10" stroke-linecap="round" stroke-linejoin="round"/>
<path d="M184.043 82.906L199.319 91.842V109.59" stroke="#f7bf20" stroke-miterlimit="10" stroke-linecap="round" stroke-linejoin="round"/>
<path d="M199.195 91.842L214.471 82.906" stroke="#f7bf20" stroke-miterlimit="10" stroke-linecap="round" stroke-linejoin="round"/>
<path d="M100.152 136.025L111.486 129.448L122.819 136.025V137.639V149.181L111.486 155.759L100.152 149.181V137.639V136.025Z" stroke="#f7bf20" stroke-width="2" stroke-miterlimit="10" stroke-linecap="round" stroke-linejoin="round"/>
<path d="M100.152 136.025L111.486 142.603V155.759" stroke="#f7bf20" stroke-miterlimit="10" stroke-linecap="round" stroke-linejoin="round"/>
<path d="M111.239 142.603L122.819 136.025" stroke="#f7bf20" stroke-miterlimit="10" stroke-linecap="round" stroke-linejoin="round"/>
<path d="M31.9058 96.3099L99.5362 135.777" stroke="#f7bf20" stroke-miterlimit="10" stroke-linecap="round" stroke-linejoin="round"/>
<path d="M123.804 135.777L191.558 96.3099" stroke="#f7bf20" stroke-miterlimit="10" stroke-linecap="round" stroke-linejoin="round"/>
<path d="M176.652 34.9993H221" stroke="#1e7552" stroke-miterlimit="10" stroke-linejoin="round"/>
<path d="M191.928 16.1345H180.348V32.7654" stroke="#1e7552" stroke-miterlimit="10" stroke-linejoin="round"/>
<path d="M217.304 32.7653V6.82617H194.145V32.7653" stroke="#1e7552" stroke-miterlimit="10" stroke-linejoin="round"/>
<path d="M183.428 19.4855H184.906" stroke="#1e7552" stroke-miterlimit="10" stroke-linejoin="round"/>
<path d="M186.507 19.4855H187.986" stroke="#1e7552" stroke-miterlimit="10" stroke-linejoin="round"/>
<path d="M189.587 19.4855H191.065" stroke="#1e7552" stroke-miterlimit="10" stroke-linejoin="round"/>
<path d="M183.428 22.5883H184.906" stroke="#1e7552" stroke-miterlimit="10" stroke-linejoin="round"/>
<path d="M186.507 22.5883H187.986" stroke="#1e7552" stroke-miterlimit="10" stroke-linejoin="round"/>
<path d="M189.587 22.5883H191.065" stroke="#1e7552" stroke-miterlimit="10" stroke-linejoin="round"/>
<path d="M183.428 25.691H184.906" stroke="#1e7552" stroke-miterlimit="10" stroke-linejoin="round"/>
<path d="M186.507 25.691H187.986" stroke="#1e7552" stroke-miterlimit="10" stroke-linejoin="round"/>
<path d="M189.587 25.691H191.065" stroke="#1e7552" stroke-miterlimit="10" stroke-linejoin="round"/>
<path d="M183.428 28.7937H184.906" stroke="#1e7552" stroke-miterlimit="10" stroke-linejoin="round"/>
<path d="M186.507 28.7937H187.986" stroke="#1e7552" stroke-miterlimit="10" stroke-linejoin="round"/>
<path d="M189.587 28.7937H191.065" stroke="#1e7552" stroke-miterlimit="10" stroke-linejoin="round"/>
<path d="M201.167 10.1771H198.087V13.2799H201.167V10.1771Z" stroke="#1e7552" stroke-miterlimit="10" stroke-linejoin="round"/>
<path d="M207.326 10.1771H204.247V13.2799H207.326V10.1771Z" stroke="#1e7552" stroke-miterlimit="10" stroke-linejoin="round"/>
<path d="M213.485 10.1771H210.406V13.2799H213.485V10.1771Z" stroke="#1e7552" stroke-miterlimit="10" stroke-linejoin="round"/>
<path d="M201.167 16.3827H198.087V19.4855H201.167V16.3827Z" stroke="#1e7552" stroke-miterlimit="10" stroke-linejoin="round"/>
<path d="M207.326 16.3827H204.247V19.4855H207.326V16.3827Z" stroke="#1e7552" stroke-miterlimit="10" stroke-linejoin="round"/>
<path d="M213.485 16.3827H210.406V19.4855H213.485V16.3827Z" stroke="#1e7552" stroke-miterlimit="10" stroke-linejoin="round"/>
<path d="M201.167 22.5883H198.087V25.691H201.167V22.5883Z" stroke="#1e7552" stroke-miterlimit="10" stroke-linejoin="round"/>
<path d="M207.326 22.5883H204.247V25.691H207.326V22.5883Z" stroke="#1e7552" stroke-miterlimit="10" stroke-linejoin="round"/>
<path d="M213.485 22.5883H210.406V25.691H213.485V22.5883Z" stroke="#1e7552" stroke-miterlimit="10" stroke-linejoin="round"/>
<path d="M198.087 32.7652V28.7937H213.485V32.7652" stroke="#1e7552" stroke-miterlimit="10" stroke-linejoin="round"/>
<path d="M207.326 28.7937V32.7652" stroke="#1e7552" stroke-miterlimit="10" stroke-linejoin="round"/>
<path d="M111.485 135.777V99.4127" stroke="#f7bf20" stroke-miterlimit="10" stroke-linecap="round" stroke-dasharray="4 4"/>
<path d="M91.8984 89.1115H93.6231" stroke="#1e7552" stroke-miterlimit="10" stroke-linejoin="round"/>
<path d="M91.8984 92.5866H103.848" stroke="#1e7552" stroke-miterlimit="10" stroke-linejoin="round"/>
<path d="M105.572 92.5866H108.898" stroke="#1e7552" stroke-miterlimit="10" stroke-linejoin="round"/>
<path d="M95.3477 89.1115H96.9491" stroke="#1e7552" stroke-miterlimit="10" stroke-linejoin="round"/>
<path d="M98.6738 89.1115H100.398" stroke="#1e7552" stroke-miterlimit="10" stroke-linejoin="round"/>
<path d="M102.123 89.1115H103.848" stroke="#1e7552" stroke-miterlimit="10" stroke-linejoin="round"/>
<path d="M107.174 89.1115H108.898" stroke="#1e7552" stroke-miterlimit="10" stroke-linejoin="round"/>
<path d="M136.739 84.1471V68.3851H87.8335V97.7993H111.978" stroke="#1e7552" stroke-miterlimit="10" stroke-linejoin="round"/>
<path d="M126.145 111.824C133.969 111.824 140.311 105.434 140.311 97.551C140.311 89.6684 133.969 83.2783 126.145 83.2783C118.321 83.2783 111.978 89.6684 111.978 97.551C111.978 105.434 118.321 111.824 126.145 111.824Z" stroke="#1e7552" stroke-miterlimit="10" stroke-linejoin="round"/>
<path d="M136.739 97.551C136.739 103.508 131.935 108.225 126.145 108.225C120.355 108.225 115.551 103.384 115.551 97.551C115.551 91.7178 120.355 86.8775 126.145 86.8775" stroke="#1e7552" stroke-miterlimit="10" stroke-linejoin="round"/>
<path d="M99.6597 75.2112C99.6597 76.8247 98.6742 78.314 97.3191 78.314C95.8408 78.314 94.9785 76.8247 94.9785 75.2112C94.9785 73.5978 95.4713 72.6049 97.3191 72.6049C99.1669 72.4808 99.6597 73.4737 99.6597 75.2112Z" stroke="#1e7552" stroke-miterlimit="10" stroke-linejoin="round"/>
<path d="M98.7971 77.8175L101.261 79.3068C101.754 79.5551 102.123 80.1756 102.123 80.6721C102.123 81.4167 101.63 82.1614 101.138 82.1614H93.6232C93.1305 82.1614 92.6377 81.5408 92.6377 80.6721C92.6377 80.0515 93.0073 79.5551 93.5 79.3068L95.9638 77.8175" stroke="#1e7552" stroke-miterlimit="10" stroke-linejoin="round"/>
<path d="M135.137 90.725L125.159 100.778L120.848 96.5582" stroke="#1e7552" stroke-miterlimit="10" stroke-linejoin="round"/>
<path d="M131.935 76.3281V79.3068H125.16V72.4807H129.348" stroke="#1e7552" stroke-miterlimit="10" stroke-linejoin="round"/>
<path d="M126.884 75.2111L128.486 76.7004L131.935 73.2253" stroke="#1e7552" stroke-miterlimit="10" stroke-linejoin="round"/>
<path d="M24.145 35.744V87.0017" stroke="#f7bf20" stroke-miterlimit="10" stroke-linecap="round" stroke-dasharray="4 4"/>
<path d="M199.565 35.744V87.0017" stroke="#f7bf20" stroke-miterlimit="10" stroke-linecap="round" stroke-dasharray="4 4"/>
<path d="M15.275 22.2159C15.275 25.691 13.304 28.5455 10.3475 28.5455C7.39094 28.5455 5.41992 25.5669 5.41992 22.2159C5.41992 18.8649 6.40543 16.755 10.3475 16.755C14.2895 16.755 15.275 18.7408 15.275 22.2159Z" stroke="#1e7552" stroke-miterlimit="10" stroke-linejoin="round"/>
<path d="M13.3041 27.5526L20.0795 31.5242C20.0795 31.5242 20.0795 31.8965 20.0795 33.5099C20.0795 35.1234 19.094 36.4886 18.1085 36.4886H2.58674C1.60123 36.4886 0.615723 35.1234 0.615723 33.5099C0.615723 31.8965 0.615723 31.5242 0.615723 31.5242L7.39109 27.5526" stroke="#1e7552" stroke-miterlimit="10" stroke-linejoin="round"/>
<path d="M41.5142 20.7266H50.3837" stroke="#1e7552" stroke-miterlimit="10" stroke-linejoin="round"/>
<path d="M23.0361 20.7266H39.5434" stroke="#1e7552" stroke-miterlimit="10" stroke-linejoin="round"/>
<path d="M33.7534 16.755H50.3839" stroke="#1e7552" stroke-miterlimit="10" stroke-linejoin="round"/>
<path d="M23.0361 16.755H31.7825" stroke="#1e7552" stroke-miterlimit="10" stroke-linejoin="round"/>
<path d="M30.4272 24.6981H50.3838" stroke="#1e7552" stroke-miterlimit="10" stroke-linejoin="round"/>
<path d="M23.0361 24.6981H28.4564" stroke="#1e7552" stroke-miterlimit="10" stroke-linejoin="round"/>
<path d="M49.3983 28.5455H24.0215V36.3645H49.3983V28.5455Z" stroke="#1e7552" stroke-miterlimit="10" stroke-linejoin="round"/>
<path d="M27.9634 32.5171H29.8112" stroke="#1e7552" stroke-miterlimit="10" stroke-linejoin="round"/>
<path d="M31.7822 32.5171H33.7532" stroke="#1e7552" stroke-miterlimit="10" stroke-linejoin="round"/>
<path d="M35.7246 32.5171H37.6956" stroke="#1e7552" stroke-miterlimit="10" stroke-linejoin="round"/>
<path d="M39.5435 32.5171H41.5145" stroke="#1e7552" stroke-miterlimit="10" stroke-linejoin="round"/>
<path d="M43.4854 32.5171H45.4564" stroke="#1e7552" stroke-miterlimit="10" stroke-linejoin="round"/>
<path d="M116.29 27.0562H125.899" stroke="#1e7552" stroke-miterlimit="10" stroke-linejoin="round"/>
<path d="M112.348 7.81902V4.59215H110.007V0.620605H117.891V4.59215H115.551V7.81902" stroke="#1e7552" stroke-miterlimit="10" stroke-linejoin="round"/>
<path d="M120.232 4.71631C129.841 7.44674 136.863 16.3827 136.863 27.0562C136.863 39.8396 126.515 50.2649 113.826 50.2649C101.138 50.2649 90.79 39.8396 90.79 27.0562C90.79 16.5068 97.8118 7.57085 107.42 4.71631" stroke="#1e7552" stroke-miterlimit="10" stroke-linejoin="round"/>
<path d="M113.95 46.2933C124.495 46.2933 133.044 37.6805 133.044 27.0561C133.044 16.4317 124.495 7.81897 113.95 7.81897C103.404 7.81897 94.8555 16.4317 94.8555 27.0561C94.8555 37.6805 103.404 46.2933 113.95 46.2933Z" stroke="#1e7552" stroke-miterlimit="10" stroke-linejoin="round"/>
<path d="M132.181 7.81897L129.841 10.1771" stroke="#1e7552" stroke-miterlimit="10" stroke-linejoin="round"/>
<path d="M132.938 3.85964L130.586 6.22913L133.722 9.38844L136.074 7.01896L132.938 3.85964Z" stroke="#1e7552" stroke-miterlimit="10" stroke-linejoin="round"/>
<path d="M95.5942 7.81897L98.058 10.1771" stroke="#1e7552" stroke-miterlimit="10" stroke-linejoin="round"/>
<path d="M94.7896 3.93578L91.6538 7.09509L94.0057 9.46458L97.1415 6.30527L94.7896 3.93578Z" stroke="#1e7552" stroke-miterlimit="10" stroke-linejoin="round"/>
<path d="M113.949 29.4143C115.242 29.4143 116.29 28.3586 116.29 27.0562C116.29 25.7539 115.242 24.6981 113.949 24.6981C112.657 24.6981 111.609 25.7539 111.609 27.0562C111.609 28.3586 112.657 29.4143 113.949 29.4143Z" stroke="#1e7552" stroke-miterlimit="10" stroke-linejoin="round"/>
<path d="M130.58 27.0562H128.979" stroke="#1e7552" stroke-miterlimit="10" stroke-linejoin="round"/>
<path d="M98.7972 27.0562H97.1958" stroke="#1e7552" stroke-miterlimit="10" stroke-linejoin="round"/>
<path d="M103.601 15.8862H102" stroke="#1e7552" stroke-miterlimit="10" stroke-linejoin="round"/>
<path d="M125.899 38.2262H124.297" stroke="#1e7552" stroke-miterlimit="10" stroke-linejoin="round"/>
<path d="M124.297 15.8862H125.899" stroke="#1e7552" stroke-miterlimit="10" stroke-linejoin="round"/>
<path d="M102 38.2262H103.601" stroke="#1e7552" stroke-miterlimit="10" stroke-linejoin="round"/>
<path d="M113.949 43.8111V42.1976" stroke="#1e7552" stroke-miterlimit="10" stroke-linejoin="round"/>
<path d="M113.949 11.7906V10.1771" stroke="#1e7552" stroke-miterlimit="10" stroke-linejoin="round"/>
<path d="M136.985 27.0562H180.348" stroke="#1e7552" stroke-miterlimit="10" stroke-linejoin="round" stroke-dasharray="3 3"/>
<path d="M50.3838 26.6838H93.6229" stroke="#1e7552" stroke-miterlimit="10" stroke-linejoin="round" stroke-dasharray="3 3"/>
<path d="M113.949 68.3851V49.8926" stroke="#1e7552" stroke-miterlimit="10" stroke-linejoin="round" stroke-dasharray="3 3"/>
</svg>
